<svg width="960" height="760" viewBox="0 0 960 760" fill="none" xmlns="http://www.w3.org/2000/svg">
  <rect width="960" height="760" rx="40" fill="#121A22"/>
  <rect x="28" y="28" width="904" height="704" rx="28" fill="url(#paint0_linear)"/>
  <circle cx="751" cy="173" r="116" fill="#D56A2B" fill-opacity="0.18"/>
  <circle cx="212" cy="607" r="150" fill="#356C9D" fill-opacity="0.25"/>
  <rect x="78" y="86" width="516" height="312" rx="28" fill="#1E2A35"/>
  <rect x="112" y="122" width="452" height="36" rx="18" fill="#314457"/>
  <rect x="112" y="182" width="452" height="168" rx="22" fill="#F4EEE3"/>
  <rect x="146" y="214" width="164" height="104" rx="18" fill="#DCD1BF"/>
  <circle cx="220" cy="266" r="40" fill="#9A8A70"/>
  <circle cx="220" cy="266" r="22" fill="#F4EEE3"/>
  <rect x="344" y="212" width="184" height="112" rx="14" fill="#FCFBF8"/>
  <rect x="366" y="230" width="82" height="10" rx="5" fill="#273646"/>
  <rect x="366" y="248" width="140" height="8" rx="4" fill="#8391A0"/>
  <rect x="366" y="263" width="152" height="8" rx="4" fill="#8391A0"/>
  <rect x="366" y="278" width="128" height="8" rx="4" fill="#8391A0"/>
  <rect x="366" y="295" width="120" height="12" rx="6" fill="#D56A2B"/>
  <rect x="610" y="120" width="270" height="212" rx="26" fill="#202D3A"/>
  <rect x="636" y="148" width="218" height="26" rx="13" fill="#3A5268"/>
  <rect x="636" y="194" width="218" height="108" rx="18" fill="#16202A"/>
  <path d="M662 254H829" stroke="#4C6984" stroke-width="12" stroke-linecap="round"/>
  <path d="M662 228H829" stroke="#4C6984" stroke-width="12" stroke-linecap="round"/>
  <path d="M662 280H794" stroke="#D56A2B" stroke-width="12" stroke-linecap="round"/>
  <rect x="78" y="446" width="372" height="226" rx="28" fill="#F4EEE3"/>
  <rect x="106" y="478" width="146" height="162" rx="20" fill="#233243"/>
  <rect x="132" y="506" width="94" height="106" rx="14" fill="#F4EEE3"/>
  <rect x="278" y="478" width="140" height="30" rx="15" fill="#233243"/>
  <rect x="278" y="528" width="120" height="12" rx="6" fill="#748394"/>
  <rect x="278" y="552" width="104" height="12" rx="6" fill="#748394"/>
  <rect x="278" y="576" width="128" height="12" rx="6" fill="#748394"/>
  <rect x="278" y="610" width="92" height="16" rx="8" fill="#D56A2B"/>
  <rect x="484" y="402" width="396" height="270" rx="32" fill="#18222C"/>
  <rect x="514" y="434" width="336" height="48" rx="24" fill="#2E4050"/>
  <rect x="514" y="508" width="158" height="126" rx="20" fill="#EEE5D6"/>
  <rect x="692" y="508" width="158" height="126" rx="20" fill="#EEE5D6"/>
  <path d="M534 560H652" stroke="#B2A48F" stroke-width="14" stroke-linecap="round"/>
  <path d="M714 560H832" stroke="#B2A48F" stroke-width="14" stroke-linecap="round"/>
  <path d="M534 592H620" stroke="#D56A2B" stroke-width="14" stroke-linecap="round"/>
  <path d="M714 592H800" stroke="#356C9D" stroke-width="14" stroke-linecap="round"/>
  <defs>
    <linearGradient id="paint0_linear" x1="90" y1="78" x2="850" y2="682" gradientUnits="userSpaceOnUse">
      <stop stop-color="#22303C"/>
      <stop offset="1" stop-color="#141C25"/>
    </linearGradient>
  </defs>
</svg>
