<svg width="920" height="620" viewBox="0 0 920 620" fill="none" xmlns="http://www.w3.org/2000/svg">
  <rect width="920" height="620" rx="36" fill="#EEE5D7"/>
  <rect x="40" y="40" width="840" height="540" rx="28" fill="#F8F2E9"/>
  <rect x="92" y="128" width="306" height="360" rx="152" fill="#D7CBB7"/>
  <rect x="118" y="154" width="254" height="308" rx="126" stroke="#A7977F" stroke-width="24"/>
  <circle cx="246" cy="308" r="60" fill="#F8F2E9"/>
  <rect x="450" y="122" width="324" height="196" rx="24" fill="#1D2B39"/>
  <rect x="488" y="160" width="164" height="18" rx="9" fill="#F8F2E9"/>
  <rect x="488" y="196" width="220" height="12" rx="6" fill="#8897A5"/>
  <rect x="488" y="220" width="192" height="12" rx="6" fill="#8897A5"/>
  <rect x="488" y="254" width="142" height="18" rx="9" fill="#D56A2B"/>
  <rect x="480" y="366" width="260" height="146" rx="22" fill="#FFFFFF"/>
  <rect x="510" y="396" width="134" height="14" rx="7" fill="#1D2B39"/>
  <rect x="510" y="426" width="154" height="10" rx="5" fill="#ABB7C0"/>
  <rect x="510" y="448" width="140" height="10" rx="5" fill="#ABB7C0"/>
  <rect x="154" y="84" width="124" height="40" rx="20" fill="#D56A2B"/>
</svg>
