<svg width="920" height="620" viewBox="0 0 920 620" fill="none" xmlns="http://www.w3.org/2000/svg">
  <rect width="920" height="620" rx="36" fill="#E6EDF3"/>
  <rect x="40" y="40" width="840" height="540" rx="28" fill="#F7FAFC"/>
  <rect x="106" y="346" width="520" height="84" rx="18" fill="#1F2D3B"/>
  <rect x="136" y="306" width="520" height="84" rx="18" fill="#2A3C4E"/>
  <rect x="166" y="266" width="520" height="84" rx="18" fill="#364C63"/>
  <rect x="500" y="118" width="218" height="132" rx="22" fill="#1F2D3B"/>
  <rect x="528" y="150" width="162" height="18" rx="9" fill="#F7FAFC"/>
  <rect x="528" y="182" width="132" height="12" rx="6" fill="#98AAB8"/>
  <rect x="528" y="206" width="148" height="12" rx="6" fill="#98AAB8"/>
  <rect x="162" y="128" width="244" height="152" rx="22" fill="#D56A2B"/>
  <rect x="196" y="166" width="114" height="12" rx="6" fill="#F7FAFC"/>
  <rect x="196" y="190" width="152" height="12" rx="6" fill="#F0DCCD"/>
  <rect x="196" y="214" width="130" height="12" rx="6" fill="#F0DCCD"/>
</svg>
