<svg width="800" height="520" viewBox="0 0 800 520" fill="none" xmlns="http://www.w3.org/2000/svg">
  <rect width="800" height="520" rx="32" fill="#E6EDF1"/>
  <rect x="40" y="40" width="720" height="440" rx="28" fill="#F7FAFC"/>
  <rect x="96" y="112" width="200" height="280" rx="18" fill="#223242"/>
  <rect x="128" y="146" width="136" height="18" rx="9" fill="#F7FAFC"/>
  <rect x="128" y="178" width="120" height="12" rx="6" fill="#93A4B2"/>
  <rect x="128" y="200" width="136" height="12" rx="6" fill="#93A4B2"/>
  <rect x="128" y="234" width="80" height="80" rx="16" fill="#D56A2B"/>
  <rect x="342" y="92" width="278" height="176" rx="20" fill="#FFFFFF"/>
  <rect x="380" y="126" width="180" height="16" rx="8" fill="#223242"/>
  <rect x="380" y="158" width="164" height="12" rx="6" fill="#9DAFBC"/>
  <rect x="380" y="182" width="142" height="12" rx="6" fill="#9DAFBC"/>
  <rect x="432" y="308" width="188" height="120" rx="18" fill="#2F455A"/>
  <rect x="466" y="338" width="120" height="14" rx="7" fill="#F7FAFC"/>
  <rect x="466" y="366" width="142" height="10" rx="5" fill="#B8C4CE"/>
  <rect x="342" y="292" width="188" height="120" rx="18" stroke="#D56A2B" stroke-width="16"/>
</svg>
