<svg width="800" height="520" viewBox="0 0 800 520" fill="none" xmlns="http://www.w3.org/2000/svg">
  <rect width="800" height="520" rx="32" fill="#ECE5D9"/>
  <rect x="38" y="38" width="724" height="444" rx="26" fill="#F7F1E7"/>
  <rect x="106" y="278" width="468" height="70" rx="14" fill="#1D2B39"/>
  <rect x="126" y="244" width="468" height="70" rx="14" fill="#27394A"/>
  <rect x="146" y="210" width="468" height="70" rx="14" fill="#31475C"/>
  <rect x="398" y="110" width="210" height="120" rx="18" fill="#1D2B39"/>
  <rect x="422" y="138" width="162" height="18" rx="9" fill="#F7F1E7"/>
  <rect x="422" y="172" width="126" height="12" rx="6" fill="#8C9AAA"/>
  <rect x="422" y="194" width="146" height="12" rx="6" fill="#8C9AAA"/>
  <rect x="144" y="150" width="190" height="118" rx="18" fill="#D56A2B"/>
  <rect x="170" y="178" width="96" height="10" rx="5" fill="#F7F1E7"/>
  <rect x="170" y="198" width="126" height="10" rx="5" fill="#F1DCCB"/>
  <rect x="170" y="218" width="108" height="10" rx="5" fill="#F1DCCB"/>
</svg>
